<?xml version="1.0" encoding="UTF-8" standalone="no"?>
<!-- Created with Inkscape (http://www.inkscape.org/) -->

<svg
   width="48"
   height="48"
   viewBox="0 0 48 48"
   version="1.1"
   id="svg5"
   inkscape:version="1.1.1 (3bf5ae0d25, 2021-09-20)"
   sodipodi:docname="icon.svg"
   inkscape:export-filename="C:\Users\jonas\Documents\GitHub\jkozaka\icon.png"
   inkscape:export-xdpi="96"
   inkscape:export-ydpi="96"
   xmlns:inkscape="http://www.inkscape.org/namespaces/inkscape"
   xmlns:sodipodi="http://sodipodi.sourceforge.net/DTD/sodipodi-0.dtd"
   xmlns="http://www.w3.org/2000/svg"
   xmlns:svg="http://www.w3.org/2000/svg">
  <sodipodi:namedview
     id="namedview7"
     pagecolor="#505050"
     bordercolor="#ffffff"
     borderopacity="1"
     inkscape:pageshadow="0"
     inkscape:pageopacity="0"
     inkscape:pagecheckerboard="1"
     inkscape:document-units="px"
     showgrid="true"
     inkscape:snap-grids="true"
     units="px"
     inkscape:zoom="11.313709"
     inkscape:cx="6.8500969"
     inkscape:cy="21.213203"
     inkscape:window-width="1416"
     inkscape:window-height="1000"
     inkscape:window-x="-7"
     inkscape:window-y="0"
     inkscape:window-maximized="0"
     inkscape:current-layer="layer1">
    <inkscape:grid
       type="xygrid"
       id="grid16"
       originx="0"
       originy="0"
       dotted="false"
       spacingx="4"
       spacingy="4"
       empspacing="4"
       units="px" />
  </sodipodi:namedview>
  <defs
     id="defs2" />
  <g
     inkscape:label="Layer 1"
     inkscape:groupmode="layer"
     id="layer1">
    <rect
       style="fill:#ff9955;fill-opacity:1;stroke:#000000;stroke-opacity:0"
       id="rect1664"
       width="48"
       height="48"
       x="0"
       y="0" />
    <path
       style="fill:#000000;stroke:#000000;stroke-width:1px;stroke-linecap:butt;stroke-linejoin:miter;stroke-opacity:0"
       d="m 36,12 c -4,0 -4,4 -4,4 0,0 0.04745,7.690192 0,8 0,0 0,4 4,4 4,0 4,-4 4,-4 v -8 c 0,0 0,-4 -4,-4 z"
       id="path5634-4"
       sodipodi:nodetypes="zcczccz"
       inkscape:transform-center-x="-0.70710678"
       inkscape:transform-center-y="-7.6013979" />
  </g>
  <g
     inkscape:groupmode="layer"
     id="layer2"
     inkscape:label="hair">
    <path
       style="fill:#882200;stroke:#000000;stroke-width:1px;stroke-linecap:butt;stroke-linejoin:miter;stroke-opacity:0;fill-opacity:1"
       d="M 0,16 C 3.9025115,16 7.805023,15.762038 11.475372,15.402194 22.853173,14.286707 32,12 32,12 c 0,0 8,4 16,4 V 0 H 0 Z"
       id="path1831"
       sodipodi:nodetypes="csccccc" />
    <path
       style="fill:#000000;stroke:#000000;stroke-width:1px;stroke-linecap:butt;stroke-linejoin:miter;stroke-opacity:0"
       d="m 12,12 c -4,0 -4,4 -4,4 0,0 0.047452,7.690192 0,8 0,0 0,4 4,4 4,0 4,-4 4,-4 v -8 c 0,0 0,-4 -4,-4 z"
       id="path5634"
       sodipodi:nodetypes="zcczccz" />
  </g>
</svg>
